<svg width="60" height="60" viewBox="0 0 60 60" fill="none" xmlns="http://www.w3.org/2000/svg">
<path d="M58.9371 25.7039C58.315 24.7645 57.372 24.1173 56.2757 23.8719C56.9829 22.5192 56.9541 20.8314 56.0532 19.4714C55.4123 18.5032 54.4455 17.8779 53.3931 17.6413C53.5808 17.2833 53.7195 16.8969 53.8024 16.4895C54.0322 15.3566 53.8079 14.2021 53.1693 13.2385C52.5472 12.2987 51.6042 11.6514 50.5078 11.4065C51.2151 10.0538 51.1863 8.36605 50.2854 7.00558C48.9684 5.01659 46.2776 4.46956 44.2882 5.78701L39.9806 8.63979C37.6845 7.47524 35.2423 6.64898 32.7077 6.1784C31.9066 4.96212 30.9751 3.83144 29.9323 2.8207L28.1502 1.09356C26.8451 -0.171705 24.7984 -0.361677 23.2832 0.6422C21.4906 1.82918 20.9981 4.2535 22.1851 6.0461C22.2318 6.11706 22.2775 6.18847 22.3229 6.25988C16.4813 7.44183 11.1575 10.5418 7.21711 15.0842C2.94113 20.0139 0.585938 26.3273 0.585938 32.8615C0.585938 34.1139 0.671539 35.3686 0.840912 36.5899C2.146 46.0844 8.47046 54.2665 17.3456 57.9437C20.6369 59.3079 24.1292 60 27.724 60C33.4172 60 38.8669 58.2564 43.4844 54.9582C48.0016 51.7309 51.3813 47.2774 53.2586 42.079C53.4339 41.5947 53.1826 41.0596 52.6982 40.8847C52.2135 40.7098 51.6788 40.9607 51.5039 41.4454C49.7557 46.2863 46.6077 50.4336 42.3995 53.4398C38.1006 56.5109 33.0258 58.1342 27.724 58.1342C24.9829 58.1342 22.3064 57.7016 19.7447 56.8483L27.3354 51.8216C27.3358 51.8211 27.3363 51.8211 27.3368 51.8207C27.3372 51.8207 27.3372 51.8202 27.3377 51.8198L33.6461 47.6422H33.6466C34.2128 47.2668 34.5996 46.6937 34.7351 46.0277C34.8706 45.3616 34.7388 44.6823 34.3634 44.116L34.2801 43.9897L35.5055 43.1781C36.3799 42.599 37.4314 42.372 38.4668 42.5381C39.966 42.7789 41.4885 42.4493 42.7538 41.6112L52.918 34.8802C52.8484 35.7619 52.734 36.6385 52.5742 37.5004C52.4799 38.0072 52.8145 38.4942 53.3213 38.5881C53.3785 38.5991 53.4362 38.6041 53.4925 38.6041C53.9333 38.6041 54.3251 38.2901 54.4085 37.841C54.6671 36.4499 54.8159 35.0249 54.8543 33.598L57.7185 31.701C58.6821 31.0629 59.3399 30.0874 59.5697 28.9549C59.8 27.8219 59.5752 26.6675 58.9371 25.7039ZM38.1693 9.83914L35.3188 11.727L34.7576 10.215C34.5232 9.58416 34.2545 8.96572 33.9569 8.36056C35.403 8.72723 36.8111 9.22161 38.1693 9.83914ZM8.62656 16.3069C12.4136 11.9412 17.5722 9.00646 23.2155 7.98885C24.121 10.1825 24.3379 12.6333 23.7969 14.9693L21.5222 24.7961C21.1647 24.4143 20.7005 24.1511 20.1778 24.0449C19.5113 23.909 18.8324 24.0413 18.2662 24.4166L11.8231 28.683C11.8227 28.683 11.8227 28.683 11.8222 28.6834C11.8222 28.6834 11.8218 28.6834 11.8218 28.6839L2.52915 34.8376C2.47833 34.1821 2.45178 33.5216 2.45178 32.8615C2.45178 26.7769 4.64493 20.8973 8.62656 16.3069ZM32.9068 45.6555C32.8707 45.8331 32.7672 45.9865 32.6157 46.0867H32.6161L27.0754 49.7557L16.7917 34.4192C16.5047 33.9912 15.9252 33.8772 15.4971 34.1643C15.0696 34.4513 14.9551 35.0303 15.2422 35.4584L25.5194 50.7861L17.6097 56.0243C9.74992 52.5865 4.12537 45.3264 2.77313 36.8783L12.0767 30.7374L13.1474 32.335C13.3278 32.6033 13.6226 32.7484 13.9233 32.7484C14.1019 32.7484 14.2827 32.6976 14.442 32.5905C14.87 32.3034 14.9844 31.7239 14.6974 31.2959L13.634 29.7098L19.2966 25.9721C19.4472 25.8719 19.628 25.8371 19.8056 25.8732C19.9832 25.9094 20.1366 26.0129 20.2368 26.1639L32.8079 45.1465C32.9077 45.2971 32.943 45.4779 32.9068 45.6555ZM57.7414 28.5832C57.6105 29.2277 57.2365 29.7825 56.6881 30.1455L53.4137 32.314C53.4128 32.3144 53.4119 32.3153 53.4105 32.3158L41.7234 40.0557C40.849 40.6348 39.7975 40.8623 38.7621 40.6956C37.2634 40.4553 35.7408 40.7844 34.4751 41.6226L33.2497 42.4342L22.9537 26.8872L25.6151 15.3904C26.3004 12.4287 25.9392 9.30905 24.6337 6.5913C24.6218 6.56292 24.6089 6.53545 24.5943 6.50845C24.3434 5.99483 24.0587 5.49633 23.7406 5.01568C23.1217 4.08092 23.3785 2.81704 24.3137 2.19768C25.1038 1.67446 26.1713 1.77333 26.8515 2.43297L28.6336 4.16057C30.5612 6.02962 32.0742 8.34774 33.008 10.8645L33.9784 13.4788C33.9803 13.4839 33.9821 13.488 33.9839 13.4926C33.9862 13.4985 33.989 13.5049 33.9913 13.5109C33.9981 13.5269 34.0045 13.5415 34.0114 13.5539C34.0302 13.5933 34.0508 13.6322 34.0755 13.6692C34.3602 14.0991 34.9388 14.2167 35.3682 13.932L45.3186 7.34295C46.4502 6.59359 47.9805 6.90441 48.7299 8.036C49.4793 9.1676 49.1684 10.6979 48.0368 11.4473L47.173 12.0195C47.173 12.0195 47.1726 12.0195 47.1721 12.0199L45.2454 13.2962C45.2426 13.298 45.2408 13.2998 45.2381 13.3012C45.2271 13.309 45.2166 13.3163 45.2079 13.3236C44.8096 13.6161 44.7066 14.1723 44.9826 14.5889C45.2669 15.0187 45.846 15.1364 46.2758 14.8517L48.2039 13.5745C48.7519 13.2124 49.4078 13.0847 50.0519 13.2156C50.696 13.3465 51.2513 13.7205 51.6138 14.2689C51.9768 14.8169 52.105 15.4738 51.9741 16.1178C51.8431 16.7624 51.4692 17.3172 50.9207 17.6802L48.1293 19.5291C47.6995 19.8134 47.5818 20.392 47.8666 20.8218C48.046 21.0928 48.3426 21.2397 48.6452 21.2397C48.8219 21.2397 49.0009 21.1894 49.1593 21.0846L49.5914 20.7985L51.0865 19.8083C52.2185 19.059 53.7484 19.3698 54.4977 20.5014C55.2471 21.6334 54.9363 23.1633 53.8047 23.9131L52.4103 24.8364C52.403 24.841 52.3957 24.846 52.3883 24.851L51.0132 25.7615C50.5834 26.0458 50.4657 26.6249 50.7505 27.0547C50.9299 27.3257 51.2265 27.4727 51.5291 27.4727C51.7058 27.4727 51.8848 27.4223 52.0432 27.3175L52.4753 27.0314C52.4753 27.0314 52.4753 27.0309 52.4758 27.0309L53.9708 26.0412C54.5188 25.6782 55.1752 25.5501 55.8197 25.6814C56.4643 25.8119 57.0191 26.1863 57.3821 26.7343C57.7446 27.2822 57.8724 27.9391 57.7414 28.5832Z" fill="#1064E5" stroke="#1064E5"/>
</svg>
