<svg width="60" height="61" viewBox="0 0 60 61" xmlns="http://www.w3.org/2000/svg">
<path d="M6.51855 11.4531H12.7197L21.8506 37.5518L30.9814 11.4531H37.1826L24.3408 47H19.3604L6.51855 11.4531ZM3.17383 11.4531H9.35059L10.4736 36.8926V47H3.17383V11.4531ZM34.3506 11.4531H40.5518V47H33.2275V36.8926L34.3506 11.4531Z"/>
<path d="M50.6797 50.6982C50.6797 50.0635 50.582 49.4938 50.3867 48.9893C50.2077 48.4684 49.8659 47.9964 49.3613 47.5732C48.8568 47.1338 48.1488 46.7025 47.2373 46.2793C46.3258 45.8561 45.1458 45.4167 43.6973 44.9609C42.0859 44.4401 40.556 43.8542 39.1074 43.2031C37.6751 42.5521 36.4056 41.7952 35.2988 40.9326C34.2083 40.0537 33.3457 39.0365 32.7109 37.8809C32.0924 36.7253 31.7832 35.3825 31.7832 33.8525C31.7832 32.3714 32.1087 31.0286 32.7598 29.8242C33.4108 28.6035 34.3223 27.5618 35.4941 26.6992C36.666 25.8203 38.0495 25.1449 39.6445 24.6729C41.2559 24.2008 43.0218 23.9648 44.9424 23.9648C47.5628 23.9648 49.8496 24.4368 51.8027 25.3809C53.7559 26.3249 55.2695 27.6188 56.3438 29.2627C57.4342 30.9066 57.9795 32.7865 57.9795 34.9023H50.7041C50.7041 33.8607 50.4844 32.9492 50.0449 32.168C49.6217 31.3704 48.9707 30.7438 48.0918 30.2881C47.2292 29.8324 46.1387 29.6045 44.8203 29.6045C43.5508 29.6045 42.4928 29.7998 41.6465 30.1904C40.8001 30.5648 40.1654 31.0775 39.7422 31.7285C39.319 32.3633 39.1074 33.0794 39.1074 33.877C39.1074 34.4792 39.2539 35.0244 39.5469 35.5127C39.8561 36.001 40.3118 36.4567 40.9141 36.8799C41.5163 37.3031 42.2568 37.7018 43.1357 38.0762C44.0146 38.4505 45.0319 38.8167 46.1875 39.1748C48.1243 39.7607 49.8252 40.4199 51.29 41.1523C52.7712 41.8848 54.0081 42.7067 55.001 43.6182C55.9938 44.5296 56.7425 45.5632 57.2471 46.7188C57.7516 47.8743 58.0039 49.1846 58.0039 50.6494C58.0039 52.1956 57.7028 53.5791 57.1006 54.7998C56.4984 56.0205 55.6276 57.054 54.4883 57.9004C53.349 58.7467 51.9899 59.3896 50.4111 59.8291C48.8324 60.2686 47.0664 60.4883 45.1133 60.4883C43.3555 60.4883 41.6221 60.2604 39.9131 59.8047C38.2041 59.3327 36.6497 58.6247 35.25 57.6807C33.8665 56.7367 32.7598 55.5322 31.9297 54.0674C31.0996 52.6025 30.6846 50.8691 30.6846 48.8672H38.0332C38.0332 49.974 38.2041 50.9098 38.5459 51.6748C38.8877 52.4398 39.3678 53.0583 39.9863 53.5303C40.6211 54.0023 41.3698 54.3441 42.2324 54.5557C43.1113 54.7673 44.0716 54.873 45.1133 54.873C46.3828 54.873 47.4245 54.694 48.2383 54.3359C49.0684 53.9779 49.6787 53.4814 50.0693 52.8467C50.4762 52.2119 50.6797 51.4958 50.6797 50.6982Z"/>
</svg>
