<svg width="35" height="41" viewBox="0 0 35 41" fill="none" xmlns="http://www.w3.org/2000/svg">
<path d="M3.30389 6.08495H5.99009L12.8421 23.1359L19.6797 6.08495H22.3803L13.8763 27H11.7791L3.30389 6.08495ZM2.42764 6.08495H4.79782L5.18567 18.8408V27H2.42764V6.08495ZM20.872 6.08495H23.2421V27H20.4841V18.8408L20.872 6.08495Z" fill="black"/>
<path d="M30.5747 28.7138C30.5747 28.2254 30.4981 27.7944 30.3448 27.421C30.2012 27.0379 29.9426 26.6931 29.5691 26.3867C29.2052 26.0802 28.6977 25.7882 28.0465 25.5104C27.4049 25.2327 26.5909 24.9502 25.6045 24.6629C24.5702 24.3565 23.6365 24.0165 22.8034 23.643C21.9702 23.26 21.2567 22.8242 20.663 22.3358C20.0693 21.8474 19.6144 21.2872 19.2984 20.6552C18.9823 20.0231 18.8243 19.3001 18.8243 18.4861C18.8243 17.6721 18.9919 16.9203 19.3271 16.2308C19.6623 15.5413 20.1411 14.9428 20.7636 14.4352C21.3956 13.9181 22.1474 13.5159 23.0188 13.2286C23.8903 12.9413 24.8623 12.7977 25.9349 12.7977C27.5054 12.7977 28.8365 13.0993 29.9283 13.7026C31.0296 14.2964 31.8675 15.0769 32.4421 16.0441C33.0167 17.0017 33.304 18.0264 33.304 19.1181H30.5459C30.5459 18.3329 30.3784 17.6386 30.0432 17.0353C29.708 16.4224 29.2004 15.9435 28.5205 15.5988C27.8406 15.2444 26.9787 15.0673 25.9349 15.0673C24.9485 15.0673 24.1345 15.2157 23.4929 15.5126C22.8512 15.8095 22.3724 16.2117 22.0564 16.7192C21.7499 17.2268 21.5967 17.8062 21.5967 18.4574C21.5967 18.8979 21.6877 19.3001 21.8696 19.664C22.0612 20.0183 22.3533 20.3487 22.7459 20.6552C23.1481 20.9616 23.6557 21.2441 24.2686 21.5027C24.891 21.7612 25.6332 22.0102 26.4951 22.2496C27.6826 22.5848 28.7073 22.9583 29.5691 23.3701C30.431 23.7819 31.1397 24.2463 31.6951 24.7635C32.2601 25.271 32.6767 25.8504 32.9449 26.5016C33.2226 27.1432 33.3614 27.871 33.3614 28.685C33.3614 29.5374 33.1891 30.3083 32.8443 30.9978C32.4995 31.6873 32.0064 32.2762 31.3647 32.7646C30.7231 33.253 29.9522 33.6313 29.052 33.8994C28.1614 34.158 27.1654 34.2873 26.0641 34.2873C25.0969 34.2873 24.1441 34.1532 23.2056 33.8851C22.2766 33.6169 21.4291 33.2147 20.663 32.6784C19.9065 32.1422 19.2984 31.4814 18.8387 30.6961C18.3886 29.9013 18.1635 28.9819 18.1635 27.9381H20.9216C20.9216 28.6563 21.0604 29.274 21.3381 29.7911C21.6159 30.2987 21.9941 30.7201 22.473 31.0552C22.9614 31.3904 23.512 31.6394 24.1249 31.8022C24.7474 31.9554 25.3938 32.032 26.0641 32.032C27.0314 32.032 27.8502 31.898 28.5205 31.6298C29.1909 31.3617 29.6984 30.9786 30.0432 30.4806C30.3975 29.9827 30.5747 29.3937 30.5747 28.7138Z" fill="black"/>
</svg>
