<svg width="93" height="116" viewBox="0 0 93 116" fill="none" xmlns="http://www.w3.org/2000/svg">
<path d="M10.4297 17.125H20.3516L34.9609 58.8828L49.5703 17.125H59.4922L38.9453 74H30.9766L10.4297 17.125ZM5.07812 17.125H14.9609L16.7578 57.8281V74H5.07812V17.125ZM54.9609 17.125H64.8828V74H53.1641V57.8281L54.9609 17.125Z" fill="black"/>
<path d="M77.6875 81.1172C77.6875 80.1016 77.5312 79.1901 77.2188 78.3828C76.9323 77.5495 76.3854 76.7943 75.5781 76.1172C74.7708 75.4141 73.638 74.724 72.1797 74.0469C70.7214 73.3698 68.8333 72.6667 66.5156 71.9375C63.9375 71.1042 61.4896 70.1667 59.1719 69.125C56.8802 68.0833 54.849 66.8724 53.0781 65.4922C51.3333 64.0859 49.9531 62.4583 48.9375 60.6094C47.9479 58.7604 47.4531 56.612 47.4531 54.1641C47.4531 51.7943 47.974 49.6458 49.0156 47.7188C50.0573 45.7656 51.5156 44.099 53.3906 42.7188C55.2656 41.3125 57.4792 40.2318 60.0312 39.4766C62.6094 38.7214 65.4349 38.3438 68.5078 38.3438C72.7005 38.3438 76.3594 39.099 79.4844 40.6094C82.6094 42.1198 85.0312 44.1901 86.75 46.8203C88.4948 49.4505 89.3672 52.4583 89.3672 55.8438H77.7266C77.7266 54.1771 77.375 52.7188 76.6719 51.4688C75.9948 50.1927 74.9531 49.1901 73.5469 48.4609C72.1667 47.7318 70.4219 47.3672 68.3125 47.3672C66.2812 47.3672 64.5885 47.6797 63.2344 48.3047C61.8802 48.9036 60.8646 49.724 60.1875 50.7656C59.5104 51.7812 59.1719 52.9271 59.1719 54.2031C59.1719 55.1667 59.4062 56.0391 59.875 56.8203C60.3698 57.6016 61.099 58.3307 62.0625 59.0078C63.026 59.6849 64.2109 60.3229 65.6172 60.9219C67.0234 61.5208 68.651 62.1068 70.5 62.6797C73.599 63.6172 76.3203 64.6719 78.6641 65.8438C81.0339 67.0156 83.013 68.3307 84.6016 69.7891C86.1901 71.2474 87.388 72.901 88.1953 74.75C89.0026 76.599 89.4062 78.6953 89.4062 81.0391C89.4062 83.513 88.9245 85.7266 87.9609 87.6797C86.9974 89.6328 85.6042 91.2865 83.7812 92.6406C81.9583 93.9948 79.7839 95.0234 77.2578 95.7266C74.7318 96.4297 71.9062 96.7812 68.7812 96.7812C65.9688 96.7812 63.1953 96.4167 60.4609 95.6875C57.7266 94.9323 55.2396 93.7995 53 92.2891C50.7865 90.7786 49.0156 88.8516 47.6875 86.5078C46.3594 84.1641 45.6953 81.3906 45.6953 78.1875H57.4531C57.4531 79.9583 57.7266 81.4557 58.2734 82.6797C58.8203 83.9036 59.5885 84.8932 60.5781 85.6484C61.5938 86.4036 62.7917 86.9505 64.1719 87.2891C65.5781 87.6276 67.1146 87.7969 68.7812 87.7969C70.8125 87.7969 72.4792 87.5104 73.7812 86.9375C75.1094 86.3646 76.0859 85.5703 76.7109 84.5547C77.362 83.5391 77.6875 82.3932 77.6875 81.1172Z" fill="black"/>
</svg>
